<svg xmlns="http://www.w3.org/2000/svg" xmlns:xlink="http://www.w3.org/1999/xlink" id="Layer_1" x="0px" y="0px" viewBox="0 0 940.4 190.2" style="enable-background:new 0 0 940.4 190.2;" xml:space="preserve"> <style type="text/css"> .st0{fill:none;stroke:#000000;stroke-width:9.3;stroke-miterlimit:10;} .st1{fill:none;stroke:#000000;stroke-width:9.2999;stroke-miterlimit:9.9999;} </style> <path d="M369.7,126.6c13.4,0,19.1,9.9,19.1,19.8s-5.6,19.6-19.1,19.6H354v23.2h-9.4v-62.6H369.7z M369.1,157.5 c7.3,0,10.3-5.5,10.3-11.1s-2.9-11.3-9.9-11.3H354v22.3h15.1V157.5z"></path> <path d="M438.7,189.1l-5.8-15.8h-26.1l-5.8,15.8h-9.8l23.7-62.6h10l23.6,62.6H438.7z M409.8,165.1h20.1l-10-27.2L409.8,165.1z"></path> <path d="M456.2,171.2h9.3c0.2,5.4,5.2,10.5,13,10.5c7.5,0,11.8-4.7,11.8-9.9c0-5.5-5-8.2-10.1-9.5l-8-2 c-13.4-3.4-15.5-11.2-15.5-16.4c0-11,9.7-18.3,20.8-18.3c11.3,0,20.1,7.1,20.1,18.5h-9.3c0-5.9-4.6-10-11.1-10 c-5.9,0-11.2,3.9-11.2,9.6c0,2,0.6,6.1,8.5,8.2l7.9,2.2c10.5,2.8,17.2,8.2,17.2,17.3c0,10.4-8.5,18.9-21.2,18.9 C465.1,190.2,456.2,181.2,456.2,171.2z"></path> <path d="M554.7,189.1l-5.8-15.8h-26.1l-5.8,15.8h-9.8l23.7-62.6h10l23.6,62.6H554.7z M525.8,165.1h20.1l-10-27.2L525.8,165.1z"></path> <path d="M609.2,189.1l-16.1-23.3H586v23.3h-9.3v-62.6h23.9c13.7,0,19.2,9.9,19.2,19.8c0,9-5.5,18.4-15.9,19.4l16.4,23.3h-11.1V189.1 z M586,135.1v22.5h12.3c8.6,0,12.2-4.6,12.2-11.3s-3.9-11.3-10-11.3L586,135.1z"></path> <path d="M709.9,189.1h-14.6l-4.1-35.6L677.6,182h-10.9l-13.6-28.3l-4.2,35.5h-14.6l7.7-62.6h11.9l18.2,39.1l18-39.1h12.2 L709.9,189.1z"></path> <path d="M725.1,189.1v-62.6h14.3v62.6H725.1z"></path> <path d="M808.3,189.1h-18.2l-18.4-24.5v24.5h-14.3v-62.6h14.3v25.2l16.2-25.2h17l-20.8,31L808.3,189.1z"></path> <path d="M851.3,189.1l-14.3-22h-2.9v22h-14.2v-62.6h25.6c14.5,0,21.1,10.4,21.1,20.7c0,8.8-6.5,17.2-14.6,19.1l16.1,22.8 L851.3,189.1L851.3,189.1z M834.1,139v16.9h9.1c6.3,0,9-4.1,9-8.3c0.2-4.6-3.4-8.5-8-8.6c-0.2,0-0.4,0-0.6,0L834.1,139L834.1,139z"></path> <path d="M876.5,157.8c-0.1-17.7,14.1-32.2,31.9-32.3h0.1c17.6,0,31.9,14.6,31.9,32.3s-14.2,32.4-31.9,32.4 C890.6,190.2,876.5,175.5,876.5,157.8z M926,157.8c0-10.4-7.2-18.9-17.6-18.9s-17.5,8.4-17.5,18.9s7,19,17.5,19S926,168.3,926,157.8 L926,157.8z"></path> <path class="st0" d="M4.9,151.2L119.6,36.5l0,0l32.3,32.3l0,0L37.2,183.5c-0.4,0.4-1,0.4-1.4,0L4.9,152.6 C4.5,152.2,4.5,151.6,4.9,151.2z"></path> <path class="st0" d="M152.6,4.9l57,57l0,0l-32.3,32.3l0,0l-57.7-57.7l0,0l31.6-31.6C151.6,4.6,152.2,4.6,152.6,4.9z"></path> <path class="st0" d="M241.9,94.2l57,57c0.4,0.4,0.4,1,0,1.4L268,183.5c-0.4,0.4-1,0.4-1.4,0l-57-57l0,0L241.9,94.2L241.9,94.2z"></path> <path class="st0" d="M126.5,94.2l57.7,57.7l0,0l-31.6,31.6c-0.4,0.4-1,0.4-1.4,0l-57-57l0,0L126.5,94.2L126.5,94.2z"></path> <rect x="156.1" y="84.1" transform="matrix(0.7071 -0.7071 0.7071 0.7071 -17.9617 170.5762)" class="st1" width="81.6" height="45.7"></rect> </svg>